#!OML:ASF F:\twosubjects\two\Thursday\Session 1\justin.ASF
:FULLY-SPECIFIED
:DEGREES
449
root 7.39316 9.2761 -21.6298 -29.381 -1.24519 -1.16253
lowerback 35.1267 3.27547 -2.60463
upperback 14.209 3.28934 0.255032
thorax -2.2135 1.50576 0.572783
lowerneck -22.8378 -7.20769 -16.0162
upperneck -0.47251 -6.12434 12.8988
head 4.33966 -2.29155 6.06624
rclavicle 2.18663e-014 -2.78299e-015
rhumerus 5.41501 28.2931 -79.3785
rradius 60.5998
rwrist 19.4623
rhand 6.60708 8.48873
rfingers 7.12502
rthumb 31.9016 -18.7369
lclavicle 2.18663e-014 -2.78299e-015
lhumerus 16.2819 -31.9307 79.654
lradius 57.9972
lwrist -41.3784
lhand 23.2967 42.7499
lfingers 7.12502
lthumb 47.5929 65.1504
rfemur -62.9109 -21.9457 7.71115
rtibia 86.1948
rfoot 5.70194 6.53021
rtoes -8.45723
lfemur -63.7852 19.8986 -4.29559
ltibia 88.1415
lfoot 4.06834 -21.0076
ltoes -4.13649
450
root 7.39084 9.28039 -21.6223 -29.2254 -1.20358 -1.32099
lowerback 35.0525 3.14236 -2.41046
upperback 14.3777 3.19439 0.346363
thorax -2.00184 1.46124 0.60457
lowerneck -22.9651 -7.19589 -15.9606
upperneck -0.853748 -6.07646 12.904
head 4.23088 -2.25997 6.06542
rclavicle 5.36719e-015 1.15295e-014
rhumerus 6.18514 28.5645 -78.8039
rradius 60.8268
rwrist 18.8805
rhand 7.29231 8.1125
rfingers 7.12502
rthumb 32.5539 -18.9808
lclavicle 5.36719e-015 1.15295e-014
lhumerus 16.4167 -31.7712 79.5004
lradius 58.4043
lwrist -41.2194
lhand 23.9664 42.9071
lfingers 7.12502
lthumb 48.2105 65.0211
rfemur -63.0447 -22.1093 7.943
rtibia 86.1984
rfoot 6.59573 6.83697
rtoes -4.94369
lfemur -64.0177 19.8886 -4.20427
ltibia 88.2397
lfoot 4.08347 -20.833
ltoes -3.34668
451
root 7.39026 9.28661 -21.6106 -29.1423 -1.21061 -1.45956
lowerback 35.063 3.0199 -2.21953
upperback 14.4908 3.10656 0.436156
thorax -1.87957 1.42071 0.629379
lowerneck -23.0133 -7.18791 -15.9771
upperneck -1.17643 -6.0361 12.9722
head 4.1357 -2.23195 6.09683
rclavicle -7.7526e-015 6.75868e-015
rhumerus 6.50997 28.6624 -78.5162
rradius 61.1972
rwrist 18.7194
rhand 7.2488 7.99858
rfingers 7.12502
rthumb 32.5125 -19.1032
lclavicle -7.7526e-015 6.75868e-015
lhumerus 16.4926 -31.6789 79.3954
lradius 58.8243
lwrist -41.061
lhand 24.9946 43.1167
lfingers 7.12502
lthumb 49.1562 64.7715
rfemur -63.0706 -22.2453 8.14046
rtibia 86.1925
rfoot 5.44308 6.59399
rtoes -9.59983
lfemur -64.0863 19.9443 -4.12001
ltibia 88.2923
lfoot 3.6062 -21.1203
ltoes -4.83346
452
root 7.39083 9.29223 -21.6035 -29.031 -1.12234 -1.38314
lowerback 35.3054 2.95061 -2.2576
upperback 14.3829 2.99818 0.436871
thorax -2.07793 1.36599 0.674461
lowerneck -22.6759 -7.05844 -15.813
upperneck -1.69037 -5.92152 12.8979
head 3.90523 -2.1875 6.06375
rclavicle 4.17448e-015 -3.18055e-015
rhumerus 6.05814 28.6288 -78.884
rradius 61.743
rwrist 19.0055
rhand 6.92522 8.19141
rfingers 7.12502
rthumb 32.2045 -18.9733
lclavicle 4.17448e-015 -3.18055e-015
lhumerus 16.2068 -31.9547 79.2522
lradius 59.2887
lwrist -40.3488
lhand 23.9194 43.3668
lfingers 7.12502
lthumb 48.1673 65.5012
rfemur -63.1662 -22.3661 8.05676
rtibia 86.2136
rfoot 5.8621 6.65903
rtoes -8.07894
lfemur -64.1556 19.8251 -4.26134
ltibia 88.3111
lfoot 3.24305 -21.3175
ltoes -6.08371
453
root 7.3913 9.29381 -21.5996 -28.913 -0.971929 -1.21499
lowerback 35.5085 2.91548 -2.43435
upperback 14.3017 2.89114 0.462947
thorax -2.23906 1.30483 0.820412
lowerneck -22.3898 -6.89442 -15.7132
upperneck -2.03439 -5.74675 12.8205
head 3.72838 -2.11305 6.04621
rclavicle -1.67973e-014 -1.39149e-014
rhumerus 5.82985 28.7232 -79.0238
rradius 62.3422
rwrist 18.8342
rhand 7.29218 8.38577
rfingers 7.12502
rthumb 32.5538 -18.7075
lclavicle -1.67973e-014 -1.39149e-014
lhumerus 15.9205 -32.4411 79.0603
lradius 59.7377
lwrist -39.0824
lhand 20.665 44.2088
lfingers 7.12502
lthumb 45.154 67.6474
rfemur -63.3041 -22.4624 7.83621
rtibia 86.2768
rfoot 5.97862 6.76057
rtoes -7.19859
lfemur -64.2646 19.6576 -4.50392
ltibia 88.3206
lfoot 3.37867 -21.2175
ltoes -5.61506
454
root 7.39206 9.28796 -21.5861 -28.7869 -0.965329 -1.09991
lowerback 35.4838 2.87783 -2.43492
upperback 14.3904 2.84546 0.47631
thorax -2.13396 1.28025 0.852514
lowerneck -22.5434 -6.87787 -15.7457
upperneck -1.97551 -5.70564 12.9623
head 3.77102 -2.0807 6.10237
rclavicle -1.19271e-014 1.07344e-014
rhumerus 6.1062 28.7092 -78.8835
rradius 62.8301
rwrist 18.3863
rhand 7.6001 8.64586
rfingers 7.12502
rthumb 32.8467 -18.3866
lclavicle -1.19271e-014 1.07344e-014
lhumerus 15.942 -32.6588 78.8378
lradius 60.1091
lwrist -38.4629
lhand 19.1237 44.9339
lfingers 7.12502
lthumb 43.7179 68.9212
rfemur -63.5352 -22.4955 7.77948
rtibia 86.391
rfoot 5.8641 6.96452
rtoes -7.24717
lfemur -64.3559 19.8264 -4.63989
ltibia 88.3348
lfoot 3.83675 -21.1808
ltoes -4.008
455
root 7.39125 9.28135 -21.5689 -28.6333 -1.0959 -1.06935
lowerback 35.6624 2.8291 -2.30189
upperback 14.3071 2.8154 0.431029
thorax -2.27717 1.27335 0.73858
lowerneck -22.5733 -6.85499 -15.6684
upperneck -1.97229 -5.70335 13.1337
head 3.78401 -2.07001 6.14705
rclavicle -2.17669e-014 4.77083e-015
rhumerus 6.1269 28.6352 -79.0561
rradius 63.1979
rwrist 18.1868
rhand 8.91942 8.32605
rfingers 7.12502
rthumb 34.1007 -18.4353
lclavicle -2.17669e-014 4.77083e-015
lhumerus 15.6982 -32.693 78.7313
lradius 60.5232
lwrist -38.3975
lhand 19.153 45.1923
lfingers 7.12502
lthumb 43.7453 69.1695
rfemur -63.8448 -22.4823 7.93534
rtibia 86.5146
rfoot 5.82422 7.10627
rtoes -7.94781
lfemur -64.444 20.0802 -4.59996
ltibia 88.3676
lfoot 3.72627 -21.2195
ltoes -4.55305
